HIERARCHY
ROOT Hips
{
	OFFSET 0.000000 71.206352 2.654994
	CHANNELS 6 Xposition Yposition Zposition Xrotation Yrotation Zrotation
	JOINT Pelvis
	{
		OFFSET 0.000000 0.000000 0.000000
		CHANNELS 3 Xrotation Yrotation Zrotation
		JOINT LeftUpLeg
		{
			OFFSET 6.797117 -2.508530 -1.318654
			CHANNELS 3 Xrotation Yrotation Zrotation
			JOINT LeftLeg
			{
				OFFSET 2.604768 -29.125713 0.690240
				CHANNELS 3 Xrotation Yrotation Zrotation
				JOINT LeftFoot
				{
					OFFSET 2.495626 -29.462662 -0.266779
					CHANNELS 3 Xrotation Yrotation Zrotation
					JOINT LeftToeBase
					{
						OFFSET 3.145477 -8.630991 16.059889
						CHANNELS 3 Xrotation Yrotation Zrotation
						End Site
						{
							OFFSET 0.000000 18.501570 0.000000
						}
					}
				}
			}
			JOINT Left_ShortSleeve
			{
				OFFSET 1.173896 -10.418373 1.153777
				CHANNELS 3 Xrotation Yrotation Zrotation
				End Site
				{
					OFFSET 0.000000 19.898849 0.000000
				}
			}
		}
		JOINT RightUpLeg
		{
			OFFSET -6.797117 -2.508530 -1.318654
			CHANNELS 3 Xrotation Yrotation Zrotation
			JOINT RightLeg
			{
				OFFSET -2.618195 -29.124561 0.688025
				CHANNELS 3 Xrotation Yrotation Zrotation
				JOINT RightFoot
				{
					OFFSET -2.482200 -29.463818 -0.264565
					CHANNELS 3 Xrotation Yrotation Zrotation
					JOINT RightToeBase
					{
						OFFSET -3.115344 -8.682778 16.113401
						CHANNELS 3 Xrotation Yrotation Zrotation
						End Site
						{
							OFFSET 0.000000 18.567112 0.000000
						}
					}
				}
			}
			JOINT Right_ShortSleeve
			{
				OFFSET -1.173896 -10.418373 1.153777
				CHANNELS 3 Xrotation Yrotation Zrotation
				End Site
				{
					OFFSET 0.000000 19.898849 0.000000
				}
			}
		}
	}
	JOINT Spine
	{
		OFFSET 0.000000 13.368111 0.470529
		CHANNELS 3 Xrotation Yrotation Zrotation
		JOINT Spine1
		{
			OFFSET 0.146996 13.837402 0.538789
			CHANNELS 3 Xrotation Yrotation Zrotation
			JOINT Spine2
			{
				OFFSET 0.167995 16.242874 -1.435485
				CHANNELS 3 Xrotation Yrotation Zrotation
				JOINT Neck
				{
					OFFSET 0.217193 18.631516 -1.679142
					CHANNELS 3 Xrotation Yrotation Zrotation
					JOINT Head
					{
						OFFSET 0.000000 6.599380 1.385859
						CHANNELS 3 Xrotation Yrotation Zrotation
						JOINT Hat
						{
							OFFSET -0.532184 27.220581 -10.096070
							CHANNELS 3 Xrotation Yrotation Zrotation
							End Site
							{
								OFFSET 0.000000 22.029861 0.000000
							}
						}
						JOINT HairD
						{
							OFFSET -10.777430 17.437408 -1.325938
							CHANNELS 3 Xrotation Yrotation Zrotation
							JOINT HairD1
							{
								OFFSET -3.290256 -11.051163 1.062188
								CHANNELS 3 Xrotation Yrotation Zrotation
								End Site
								{
									OFFSET 0.000000 11.579391 0.000000
								}
							}
						}
						JOINT HairB
						{
							OFFSET -10.777430 17.437408 1.467893
							CHANNELS 3 Xrotation Yrotation Zrotation
							JOINT HairB1
							{
								OFFSET -1.561211 -12.956329 3.590162
								CHANNELS 3 Xrotation Yrotation Zrotation
								End Site
								{
									OFFSET 0.000000 13.534882 0.000000
								}
							}
						}
						JOINT HairA
						{
							OFFSET 9.713062 17.437408 1.467893
							CHANNELS 3 Xrotation Yrotation Zrotation
							JOINT HairA1
							{
								OFFSET 1.561211 -12.956329 3.590162
								CHANNELS 3 Xrotation Yrotation Zrotation
								End Site
								{
									OFFSET 0.000000 13.534882 0.000000
								}
							}
						}
						JOINT HairC
						{
							OFFSET 9.713062 17.437408 -1.325938
							CHANNELS 3 Xrotation Yrotation Zrotation
							JOINT HairC1
							{
								OFFSET 3.290255 -11.051163 1.062188
								CHANNELS 3 Xrotation Yrotation Zrotation
								End Site
								{
									OFFSET 0.000000 11.579391 0.000000
								}
							}
						}
					}
				}
				JOINT LeftShoulder
				{
					OFFSET 5.101767 15.108002 -2.763695
					CHANNELS 3 Xrotation Yrotation Zrotation
					JOINT LeftArm
					{
						OFFSET 9.825546 2.506256 -1.597438
						CHANNELS 3 Xrotation Yrotation Zrotation
						JOINT LeftForeArm
						{
							OFFSET 21.924620 0.000000 -1.351923
							CHANNELS 3 Xrotation Yrotation Zrotation
							JOINT LeftHand
							{
								OFFSET 33.867149 -0.000336 -0.895185
								CHANNELS 3 Xrotation Yrotation Zrotation
								JOINT LeftHandThumb1
								{
									OFFSET 6.800735 -1.610214 3.624442
									CHANNELS 3 Xrotation Yrotation Zrotation
									JOINT LeftHandThumb2
									{
										OFFSET 2.133118 -1.047562 2.197256
										CHANNELS 3 Xrotation Yrotation Zrotation
										JOINT LeftHandThumb3
										{
											OFFSET 2.939781 -1.955193 1.239051
											CHANNELS 3 Xrotation Yrotation Zrotation
											End Site
											{
												OFFSET 0.000000 3.741707 0.000000
											}
										}
									}
								}
								JOINT LeftHandIndex1
								{
									OFFSET 14.184837 0.837936 3.778969
									CHANNELS 3 Xrotation Yrotation Zrotation
									JOINT LeftHandIndex2
									{
										OFFSET 3.454674 -0.747025 -0.349037
										CHANNELS 3 Xrotation Yrotation Zrotation
										JOINT LeftHandIndex3
										{
											OFFSET 2.708313 -1.000595 -0.200658
											CHANNELS 3 Xrotation Yrotation Zrotation
											End Site
											{
												OFFSET 0.000000 2.894211 0.000000
											}
										}
									}
								}
								JOINT LeftHandMiddle1
								{
									OFFSET 13.765343 0.551865 -0.058510
									CHANNELS 3 Xrotation Yrotation Zrotation
									JOINT LeftHandMiddle2
									{
										OFFSET 3.329315 -0.830414 -0.218270
										CHANNELS 3 Xrotation Yrotation Zrotation
										JOINT LeftHandMiddle3
										{
											OFFSET 3.521812 -1.082275 -0.230450
											CHANNELS 3 Xrotation Yrotation Zrotation
											End Site
											{
												OFFSET 0.000000 3.691559 0.000000
											}
										}
									}
								}
								JOINT LeftHandRing1
								{
									OFFSET 13.969360 -0.122360 -3.062001
									CHANNELS 3 Xrotation Yrotation Zrotation
									JOINT LeftHandRing2
									{
										OFFSET 3.063065 -0.760193 -0.203345
										CHANNELS 3 Xrotation Yrotation Zrotation
										JOINT LeftHandRing3
										{
											OFFSET 3.200409 -0.861923 -0.256632
											CHANNELS 3 Xrotation Yrotation Zrotation
											End Site
											{
												OFFSET 0.000000 3.324356 0.000000
											}
										}
									}
								}
								JOINT LeftHandPinky1
								{
									OFFSET 13.134644 -0.420990 -5.726565
									CHANNELS 3 Xrotation Yrotation Zrotation
									JOINT LeftHandPinky2
									{
										OFFSET 2.705887 -0.872284 -0.187246
										CHANNELS 3 Xrotation Yrotation Zrotation
										JOINT LeftHandPinky3
										{
											OFFSET 2.653091 -0.882462 -0.224701
											CHANNELS 3 Xrotation Yrotation Zrotation
											End Site
											{
												OFFSET 0.000000 2.805023 0.000000
											}
										}
									}
								}
							}
							JOINT Left_Sleeve
							{
								OFFSET 6.611050 -0.646652 0.631114
								CHANNELS 3 Xrotation Yrotation Zrotation
								End Site
								{
									OFFSET 0.000000 20.275742 0.000000
								}
							}
						}
					}
				}
				JOINT RightShoulder
				{
					OFFSET -5.731749 15.108002 -2.763695
					CHANNELS 3 Xrotation Yrotation Zrotation
					JOINT RightArm
					{
						OFFSET -9.825546 2.506256 -1.597438
						CHANNELS 3 Xrotation Yrotation Zrotation
						JOINT RightForeArm
						{
							OFFSET -21.924620 0.000000 -1.351923
							CHANNELS 3 Xrotation Yrotation Zrotation
							JOINT RightHand
							{
								OFFSET -33.867149 -0.000336 -0.895185
								CHANNELS 3 Xrotation Yrotation Zrotation
								JOINT RightHandThumb1
								{
									OFFSET -6.800735 -1.610214 3.624442
									CHANNELS 3 Xrotation Yrotation Zrotation
									JOINT RightHandThumb2
									{
										OFFSET -2.133118 -1.047562 2.197256
										CHANNELS 3 Xrotation Yrotation Zrotation
										JOINT RightHandThumb3
										{
											OFFSET -2.939781 -1.955193 1.239051
											CHANNELS 3 Xrotation Yrotation Zrotation
											End Site
											{
												OFFSET 0.000000 3.741707 0.000000
											}
										}
									}
								}
								JOINT RightHandIndex1
								{
									OFFSET -14.184837 0.837936 3.778969
									CHANNELS 3 Xrotation Yrotation Zrotation
									JOINT RightHandIndex2
									{
										OFFSET -3.454674 -0.747025 -0.349037
										CHANNELS 3 Xrotation Yrotation Zrotation
										JOINT RightHandIndex3
										{
											OFFSET -2.708313 -1.000595 -0.200658
											CHANNELS 3 Xrotation Yrotation Zrotation
											End Site
											{
												OFFSET 0.000000 2.894211 0.000000
											}
										}
									}
								}
								JOINT RightHandMiddle1
								{
									OFFSET -13.765343 0.551865 -0.058511
									CHANNELS 3 Xrotation Yrotation Zrotation
									JOINT RightHandMiddle2
									{
										OFFSET -3.329315 -0.830414 -0.218269
										CHANNELS 3 Xrotation Yrotation Zrotation
										JOINT RightHandMiddle3
										{
											OFFSET -3.521812 -1.082275 -0.230450
											CHANNELS 3 Xrotation Yrotation Zrotation
											End Site
											{
												OFFSET 0.000000 3.691559 0.000000
											}
										}
									}
								}
								JOINT RightHandRing1
								{
									OFFSET -13.969353 -0.122360 -3.062001
									CHANNELS 3 Xrotation Yrotation Zrotation
									JOINT RightHandRing2
									{
										OFFSET -3.063072 -0.760193 -0.203345
										CHANNELS 3 Xrotation Yrotation Zrotation
										JOINT RightHandRing3
										{
											OFFSET -3.200409 -0.861923 -0.256632
											CHANNELS 3 Xrotation Yrotation Zrotation
											End Site
											{
												OFFSET 0.000000 3.324356 0.000000
											}
										}
									}
								}
								JOINT RightHandPinky1
								{
									OFFSET -13.134644 -0.420990 -5.726565
									CHANNELS 3 Xrotation Yrotation Zrotation
									JOINT RightHandPinky2
									{
										OFFSET -2.705887 -0.872284 -0.187247
										CHANNELS 3 Xrotation Yrotation Zrotation
										JOINT RightHandPinky3
										{
											OFFSET -2.653091 -0.882462 -0.224700
											CHANNELS 3 Xrotation Yrotation Zrotation
											End Site
											{
												OFFSET 0.000000 2.805023 0.000000
											}
										}
									}
								}
							}
							JOINT Right_Sleeve
							{
								OFFSET -6.611050 -0.646652 0.631114
								CHANNELS 3 Xrotation Yrotation Zrotation
								End Site
								{
									OFFSET 0.000000 20.275742 0.000000
								}
							}
						}
					}
				}
				JOINT Bind_Right_JacketString
				{
					OFFSET -3.534774 11.969604 7.200667
					CHANNELS 3 Xrotation Yrotation Zrotation
					JOINT Bind_Right_JacketString1
					{
						OFFSET -0.319887 -6.102631 2.794061
						CHANNELS 3 Xrotation Yrotation Zrotation
						End Site
						{
							OFFSET 0.000000 6.719467 0.000000
						}
					}
				}
				JOINT Bind_Left_JacketString
				{
					OFFSET 2.904793 11.969604 7.200667
					CHANNELS 3 Xrotation Yrotation Zrotation
					JOINT Bind_Left_JacketString1
					{
						OFFSET 0.364847 -5.904457 3.186764
						CHANNELS 3 Xrotation Yrotation Zrotation
						End Site
						{
							OFFSET 0.000000 6.719460 0.000000
						}
					}
				}
				JOINT HairE
				{
					OFFSET 5.915198 17.612656 -11.592244
					CHANNELS 3 Xrotation Yrotation Zrotation
					JOINT HairE1
					{
						OFFSET 0.289203 -7.171906 -1.284488
						CHANNELS 3 Xrotation Yrotation Zrotation
						End Site
						{
							OFFSET 0.000000 7.291763 0.000000
						}
					}
				}
				JOINT HairF
				{
					OFFSET -0.864797 17.612656 -11.592244
					CHANNELS 3 Xrotation Yrotation Zrotation
					JOINT HairF1
					{
						OFFSET -0.000000 -14.087097 -2.127508
						CHANNELS 3 Xrotation Yrotation Zrotation
						End Site
						{
							OFFSET 0.000000 14.246841 0.000000
						}
					}
				}
				JOINT HairG
				{
					OFFSET -8.087694 17.612656 -11.592244
					CHANNELS 3 Xrotation Yrotation Zrotation
					JOINT HairG1
					{
						OFFSET -0.293551 -6.081375 -0.910136
						CHANNELS 3 Xrotation Yrotation Zrotation
						End Site
						{
							OFFSET 0.000000 6.156113 0.000000
						}
					}
				}
			}
		}
	}
	JOINT Pouch
	{
		OFFSET 0.000000 4.394547 10.847303
		CHANNELS 3 Xrotation Yrotation Zrotation
		End Site
		{
			OFFSET 0.000000 21.880577 0.000000
		}
	}
	JOINT Bag
	{
		OFFSET -13.229022 4.813034 -0.593262
		CHANNELS 3 Xrotation Yrotation Zrotation
		End Site
		{
			OFFSET 0.000000 21.880577 0.000000
		}
	}
	JOINT OccupyGuyFacialAnim_Joint
	{
		OFFSET 1.000000 -70.206352 -1.654994
		CHANNELS 3 Xrotation Yrotation Zrotation
		End Site
		{
			OFFSET 0.000000 21.880581 0.000000
		}
	}
}
MOTION
Frames: 4
Frame Time: 0.016667
1.003714 69.814964 1.768490 4.450132 16.258324 -2.125774 -0.000000 -0.000001 -0.000000 -13.274554 9.936749 -9.981891 30.358108 12.663052 -0.963206 -20.693315 -4.757116 16.914453 -0.000000 -0.000001 -0.000000 0.000000 0.000000 -0.000001 -11.343225 -7.913955 9.745821 28.427703 -3.815933 -7.770477 -18.000904 1.200801 -3.095799 0.000000 0.000001 -0.000000 -0.000000 -0.000001 0.000001 -9.085141 -9.787460 1.045934 4.636102 -1.592019 -0.303832 4.616004 -1.618330 -0.429758 3.210326 -2.116574 2.121247 7.396629 -7.821496 0.693633 0.000002 -0.000000 -0.000000 0.000002 -0.000000 -0.000000 -0.000000 -0.000000 -0.000000 0.000002 -0.000000 -0.000000 0.000002 -0.000000 -0.000000 0.000002 -0.000000 -0.000000 0.000002 -0.000000 -0.000000 0.000002 -0.000000 -0.000000 -0.000000 -0.000000 -0.000000 1.305226 -1.808907 2.207084 -22.768903 -40.961440 -57.369218 -0.000003 -104.753983 0.000486 39.508143 -26.201241 31.821909 1.456149 16.809731 6.451713 -8.967697 -1.860161 5.885593 0.000000 -0.000001 -0.000001 0.445552 -5.511247 9.229232 0.605838 1.367536 2.780300 -0.000001 0.000000 0.000001 0.358353 -3.504805 11.057970 -0.156096 -0.039537 -2.190968 -0.000001 -0.000000 0.000001 0.359117 -3.550759 10.974682 -0.530008 -0.760141 -4.112608 0.000001 0.000000 -0.000000 0.715605 0.439820 14.814160 -1.912189 -4.686685 -4.705636 -0.000000 0.000001 0.000001 -0.000003 0.000000 -0.000000 -0.063058 -9.130680 7.907528 2.234804 -9.748201 43.447288 -0.000019 112.449564 -0.000478 37.354301 -11.656882 34.517891 1.191492 -11.972454 -7.099138 -8.131520 -0.413600 -5.640015 -0.000000 0.000000 -0.000002 -0.057579 5.596940 -4.218872 0.214893 -1.305239 2.182453 -0.000001 0.000000 -0.000000 0.030015 3.590840 -6.045434 -0.493792 0.047721 7.151216 -0.000000 -0.000000 0.000001 0.027841 3.636401 -5.978033 -0.933774 0.732828 9.089019 0.000000 -0.000000 0.000001 0.167797 3.738251 -9.906797 -1.082884 0.743083 9.688875 0.000000 -0.000000 0.000001 0.000000 -0.000001 0.000001 -0.000000 -0.000000 0.000000 -0.000000 -0.000000 0.000000 -0.000000 -0.000000 0.000000 -0.000000 -0.000000 0.000000 -0.000000 -0.000000 0.000000 0.000000 -0.000000 0.000000 -0.000000 -0.000000 0.000000 -0.000000 -0.000000 0.000000 -0.000000 -0.000000 0.000000 0.000000 -0.000000 -0.000000 -0.000000 -0.000001 -0.000000 -0.000000 -0.000001 -0.000000 -0.000000 -0.000001 -0.000000 
1.135140 69.809013 1.816423 5.121446 17.974247 -3.430668 -0.000000 -0.000002 0.000000 -16.172312 9.912661 -8.797792 34.030854 10.696526 0.204391 -19.674473 -3.923843 14.272659 -0.000000 0.000001 -0.000000 -0.000001 -0.000001 -0.000000 -9.905752 -7.609271 9.744768 25.237515 -4.108406 -5.536209 -17.568891 1.192402 -3.240185 0.000000 0.000001 0.000000 0.000000 -0.000000 0.000001 -9.906412 -10.388000 0.846816 5.009729 -1.598641 0.816571 5.012418 -1.653337 0.675420 2.880194 -2.291888 1.783468 7.576899 -8.889892 -0.176367 0.000002 -0.000000 -0.000000 0.000002 -0.000000 -0.000000 0.000001 -0.000000 -0.000000 0.000002 -0.000000 -0.000000 0.000002 -0.000000 -0.000000 0.000002 -0.000000 -0.000000 0.000002 -0.000000 -0.000000 0.000002 -0.000000 -0.000000 0.000001 -0.000000 -0.000000 1.122198 -1.375025 2.869691 -21.476615 -44.512640 -55.588406 0.000044 -104.681180 0.000563 37.511928 -27.480646 31.092947 1.456397 16.813074 6.450551 -8.967694 -1.860158 5.885594 0.000001 0.000000 -0.000001 0.436954 -5.513301 9.142881 0.598811 1.365906 2.691045 0.000000 -0.000001 -0.000003 0.352783 -3.506734 10.971848 -0.162241 -0.040148 -2.280463 0.000001 0.000000 -0.000002 0.353478 -3.552686 10.888561 -0.537348 -0.760168 -4.202125 -0.000000 0.000000 0.000002 0.715961 0.437355 14.728214 -1.919848 -4.686262 -4.795644 -0.000000 0.000001 0.000003 0.000003 0.000002 0.000001 -0.110410 -10.118202 8.366962 1.321628 -12.730907 42.081424 0.000080 111.360292 -0.000571 36.696878 -13.435242 32.232141 1.154344 -13.122048 -7.057498 -8.067136 -1.118633 -5.709327 -0.000000 -0.000001 0.000000 -0.057579 5.596939 -4.218870 0.214897 -1.305241 2.182455 -0.000000 0.000000 -0.000001 0.030013 3.590840 -6.045431 -0.493794 0.047722 7.151217 0.000000 -0.000000 0.000000 0.027840 3.636400 -5.978030 -0.933775 0.732827 9.089024 -0.000001 -0.000000 -0.000000 0.167794 3.738252 -9.906792 -1.082885 0.743083 9.688874 0.000001 0.000000 -0.000002 -0.000003 0.000000 0.000001 0.000000 -0.000000 -0.000000 0.000000 -0.000000 -0.000000 0.000000 -0.000000 -0.000000 0.000000 -0.000000 -0.000000 0.000000 -0.000000 -0.000000 0.000000 -0.000001 -0.000000 0.000000 -0.000000 -0.000000 0.000000 -0.000000 -0.000000 0.000000 -0.000000 -0.000000 0.000000 -0.000001 0.000000 -0.000000 -0.000002 0.000000 -0.000000 -0.000002 0.000000 -0.000000 -0.000002 0.000000 
1.223444 69.803482 1.857654 5.839536 19.281187 -4.752000 0.000000 0.000000 -0.000000 -20.174596 9.245419 -6.834372 39.095924 7.998321 0.700494 -16.699582 -2.401886 9.414167 0.000001 -0.000001 0.000000 -0.000000 -0.000002 0.000000 -8.772388 -7.494810 9.846034 22.398272 -4.652657 -3.342353 -17.060919 1.278227 -3.860379 -0.000000 0.000001 -0.000000 0.000000 0.000001 -0.000000 -10.592413 -10.661054 0.878255 5.259095 -1.547640 1.776884 5.282379 -1.631458 1.628382 2.552509 -2.484927 1.482318 7.859775 -10.020500 -1.000448 0.000001 0.000000 0.000000 0.000001 0.000000 0.000000 0.000001 0.000000 -0.000000 0.000001 0.000000 -0.000000 0.000001 0.000000 -0.000000 0.000001 0.000000 -0.000000 0.000001 0.000000 -0.000000 0.000001 0.000000 0.000000 0.000001 0.000000 -0.000000 1.186082 -1.425573 3.558546 -19.880113 -47.706887 -53.020436 0.000027 -104.718794 0.000554 38.167193 -26.972448 31.935304 1.456233 16.815367 6.450820 -8.967694 -1.860160 5.885595 -0.000000 0.000000 0.000000 0.432680 -5.514315 9.100057 0.595409 1.365126 2.647935 -0.000000 0.000000 -0.000002 0.350013 -3.507682 10.929166 -0.165210 -0.040440 -2.323694 -0.000000 0.000001 -0.000000 0.350673 -3.553638 10.845863 -0.540894 -0.760175 -4.245356 0.000001 -0.000001 -0.000001 0.716127 0.436134 14.685615 -1.923548 -4.686055 -4.839119 0.000000 0.000000 0.000002 -0.000001 0.000000 -0.000000 -0.134168 -11.010192 8.907788 0.188717 -15.528167 40.853021 -0.000003 110.004131 -0.000518 35.780031 -15.634701 29.341212 1.093894 -15.039552 -6.989288 -7.863858 -3.407150 -5.929048 -0.000000 -0.000002 -0.000001 -0.057580 5.596939 -4.218873 0.214898 -1.305239 2.182453 0.000000 0.000000 -0.000000 0.030013 3.590842 -6.045436 -0.493793 0.047722 7.151215 0.000001 0.000000 -0.000002 0.027838 3.636401 -5.978033 -0.933777 0.732828 9.089020 0.000001 0.000000 -0.000001 0.167794 3.738252 -9.906798 -1.082885 0.743083 9.688873 0.000001 0.000001 -0.000000 -0.000001 -0.000000 -0.000000 -0.000000 0.000001 -0.000000 -0.000000 0.000001 -0.000000 -0.000000 0.000001 -0.000000 -0.000000 0.000001 -0.000000 -0.000000 0.000001 -0.000000 0.000000 0.000000 -0.000000 -0.000000 0.000001 -0.000000 -0.000000 0.000001 -0.000000 -0.000000 0.000001 -0.000000 -0.000000 0.000000 -0.000000 0.000000 0.000000 -0.000000 0.000000 0.000000 -0.000000 0.000000 0.000000 -0.000000 
1.275555 69.742699 1.902498 6.537561 20.125193 -6.083200 0.000000 0.000001 -0.000000 -23.478671 8.637175 -5.298387 43.520931 4.290361 0.822789 -15.134518 -1.919357 9.309732 0.000001 0.000002 -0.000001 0.000001 -0.000000 -0.000001 -7.947234 -7.762484 10.191671 20.186192 -5.325728 -1.468871 -16.793490 1.454773 -4.835871 0.000000 -0.000000 -0.000000 -0.000000 0.000000 -0.000000 -11.067597 -10.616565 1.341626 5.330514 -1.459976 2.381428 5.365314 -1.564762 2.234579 2.340008 -2.696115 1.292712 8.182993 -11.133919 -1.482076 0.000003 0.000000 0.000000 0.000003 0.000000 0.000000 0.000001 -0.000000 0.000000 0.000003 0.000000 0.000000 0.000003 0.000000 0.000000 0.000003 0.000000 0.000000 0.000003 0.000000 0.000000 0.000003 0.000000 0.000000 0.000001 -0.000000 0.000000 1.308544 -1.578316 4.233675 -17.820730 -50.683777 -49.856286 0.000100 -104.831376 0.000597 39.849106 -25.678682 33.453816 1.455989 16.816966 6.451468 -8.967694 -1.860160 5.885590 0.000000 -0.000000 -0.000001 0.430723 -5.514777 9.080421 0.593907 1.364777 2.628787 -0.000000 0.000001 -0.000000 0.348745 -3.508117 10.909565 -0.166528 -0.040569 -2.342853 -0.000001 0.000001 0.000001 0.349390 -3.554071 10.826271 -0.542466 -0.760180 -4.264543 -0.000001 0.000000 -0.000001 0.716209 0.435574 14.666043 -1.925186 -4.685962 -4.858390 -0.000000 -0.000000 -0.000001 -0.000000 0.000001 0.000001 -0.170223 -11.858348 9.602178 -1.174324 -17.983753 39.734666 -0.000020 108.311398 -0.000485 34.858335 -17.235474 26.682735 1.024114 -17.328072 -6.909781 -7.600992 -6.513419 -6.215361 -0.000000 0.000002 -0.000001 -0.057579 5.596941 -4.218871 0.214896 -1.305240 2.182455 -0.000000 0.000001 0.000001 0.030014 3.590840 -6.045432 -0.493794 0.047723 7.151211 0.000001 -0.000000 0.000001 0.027841 3.636401 -5.978029 -0.933777 0.732828 9.089016 0.000001 -0.000002 0.000001 0.167795 3.738252 -9.906794 -1.082886 0.743083 9.688874 -0.000001 -0.000000 -0.000001 -0.000001 0.000000 0.000001 -0.000000 0.000000 0.000000 -0.000000 0.000000 0.000000 -0.000000 0.000000 0.000000 -0.000000 0.000000 0.000000 -0.000000 0.000000 0.000000 -0.000000 -0.000000 -0.000000 -0.000000 0.000000 0.000000 -0.000000 0.000000 0.000000 -0.000000 0.000000 0.000000 -0.000000 -0.000000 -0.000000 0.000000 0.000001 -0.000000 0.000000 0.000001 -0.000000 0.000000 0.000001 -0.000000 
